<svg xmlns="http://www.w3.org/2000/svg" viewBox="0 0 54 54" width="54" height="54">
  <!-- Rails gris profil I -->
  <rect x="4"  y="6"   width="8" height="2.5" rx="1"   fill="#9a9896"/>
  <rect x="6"  y="8.5" width="4" height="37"         fill="#787674"/>
  <rect x="4"  y="45.5" width="8" height="2.5" rx="1" fill="#9a9896"/>
  <rect x="42" y="6"   width="8" height="2.5" rx="1"   fill="#9a9896"/>
  <rect x="44" y="8.5" width="4" height="37"         fill="#787674"/>
  <rect x="42" y="45.5" width="8" height="2.5" rx="1" fill="#9a9896"/>
  <!-- Traverses -->
  <rect x="2"  y="12" width="50" height="3.5" rx="1" fill="#c8c6c2"/>
  <rect x="2"  y="38" width="50" height="3.5" rx="1" fill="#c8c6c2"/>
  <!-- H brique -->
  <rect x="14" y="7"  width="7"  height="40" rx="2"   fill="#b84a2e"/>
  <rect x="33" y="7"  width="7"  height="40" rx="2"   fill="#b84a2e"/>
  <rect x="14" y="22" width="26" height="10" rx="1.5" fill="#b84a2e"/>
  <!-- Reflets -->
  <rect x="14" y="7"  width="2.5" height="40" rx="1" fill="white" opacity="0.12"/>
  <rect x="33" y="7"  width="2.5" height="40" rx="1" fill="white" opacity="0.12"/>
</svg>
